<svg width="68" height="18" viewBox="0 0 68 18" fill="none" xmlns="http://www.w3.org/2000/svg">
<path d="M16.1844 0.191895H7.4921V4.35905C7.4921 4.4998 7.46436 4.63918 7.41048 4.7692C7.35659 4.89922 7.27762 5.01733 7.17807 5.11678C7.07852 5.21623 6.96036 5.29506 6.83033 5.34877C6.70031 5.40248 6.56098 5.43 6.42031 5.42977H6.36247C6.07867 5.42977 5.8065 5.31697 5.60583 5.11617C5.40515 4.91537 5.29242 4.64302 5.29242 4.35905V0.191895H0V17.9116H5.30746V13.3011C5.30944 13.0231 5.4216 12.7572 5.61929 12.5619C5.81699 12.3666 6.08407 12.2577 6.36189 12.2593H6.41973C6.69755 12.2577 6.96463 12.3666 7.16233 12.5619C7.36002 12.7572 7.47218 13.0231 7.47416 13.3011V17.9023H8.45746L16.1503 17.9116L8.72121 9.05288L16.1844 0.191895Z" fill="white"/>
<path d="M48.9435 2.44399C48.9435 2.44399 49.1967 1.20936 49.236 0.779094C49.2637 0.584348 49.2637 0.386641 49.236 0.191895H33.1683V3.28309H39.4833C39.6301 3.27614 39.9156 3.35374 39.9156 3.35374C40.0541 3.40751 40.1802 3.4891 40.2861 3.59349C40.3931 3.69938 40.4779 3.82557 40.5357 3.96468C40.6526 4.24801 40.6526 4.56621 40.5357 4.84954C40.4779 4.98865 40.3931 5.11484 40.2861 5.22074C40.1797 5.32555 39.9092 5.46627 39.9092 5.46627C39.7669 5.49948 39.6218 5.51887 39.4757 5.52418H33.1758V17.9116H38.4354V13.4641C38.429 13.3125 38.4521 13.161 38.5036 13.0182C38.5546 12.8766 38.6332 12.7465 38.7348 12.6354C38.8358 12.5261 38.9582 12.4385 39.0943 12.3783C39.2294 12.3188 39.3755 12.288 39.5231 12.288C39.6708 12.288 39.8168 12.3188 39.952 12.3783C40.088 12.4387 40.2103 12.5262 40.3115 12.6354C40.4131 12.7465 40.4916 12.8766 40.5427 13.0182C40.5941 13.161 40.6173 13.3125 40.6109 13.4641V17.9116H49.2319L41.82 9.06244C41.82 9.06244 47.8829 6.69395 48.9435 2.44399Z" fill="white"/>
<path d="M60.2551 0.191895V9.77824C60.2642 9.93062 60.2432 10.0833 60.1932 10.2276C60.1424 10.3688 60.0638 10.4985 59.962 10.6089C59.8609 10.718 59.7383 10.8052 59.6019 10.865C59.467 10.9247 59.321 10.9555 59.1734 10.9555C59.0257 10.9555 58.8797 10.9247 58.7448 10.865C58.6084 10.8052 58.4858 10.718 58.3847 10.6089C58.2829 10.4985 58.2043 10.3688 58.1535 10.2276C58.1015 10.0855 58.0783 9.93453 58.0853 9.78343V0.50223C58.0853 0.39667 58.0853 0.31822 58.0853 0.191895H50.3444V13.4405C50.3444 14.616 50.8082 15.7441 51.6353 16.5808C52.4625 17.4176 53.5865 17.8956 54.7642 17.9115H63.5496C64.735 17.8956 65.8664 17.4147 66.6993 16.5727C67.5321 15.7307 67.9994 14.5954 68.0001 13.4123V0.191895H60.2551Z" fill="white"/>
<path d="M30.0939 3.17345C28.6894 1.42927 26.6677 0.292882 24.4481 0V9.87918C24.4481 10.1632 24.3354 10.4355 24.1347 10.6363C23.934 10.8371 23.6617 10.9499 23.3779 10.9499H23.32C23.0362 10.9499 22.764 10.8371 22.5632 10.6363C22.3625 10.4355 22.2498 10.1632 22.2498 9.87918V0C20.0302 0.292882 18.0085 1.42927 16.604 3.17345C15.1785 4.94394 14.4645 7.18287 14.6018 9.45221C14.739 11.7215 15.7177 13.858 17.3463 15.4436C18.9543 17.0058 21.1075 17.8796 23.349 17.8796C25.5904 17.8796 27.7436 17.0058 29.3516 15.4436C30.9802 13.858 31.9589 11.7215 32.0962 9.45221C32.2334 7.18287 31.5194 4.94394 30.0939 3.17345Z" fill="white"/>
</svg>
