<svg width="69" height="71" viewBox="0 0 69 71" fill="none" xmlns="http://www.w3.org/2000/svg">
<path d="M28 3.00122H3V28.5728H28V3.00122Z" stroke="white" stroke-width="6" stroke-miterlimit="10"/>
<path d="M20 11.5248H11V21.1141H20V11.5248Z" fill="white"/>
<path d="M66 3.00122H40V28.5728H66V3.00122Z" stroke="white" stroke-width="6" stroke-miterlimit="10"/>
<path d="M58 11.5248H49V21.1141H58V11.5248Z" fill="white"/>
<path d="M28 41.3579H3V67.9949H28V41.3579Z" stroke="white" stroke-width="6" stroke-miterlimit="10"/>
<path d="M20 50.9471H11V59.4709H20V50.9471Z" fill="white"/>
<path d="M58 41.3579H47V49.8817H58V41.3579Z" fill="white"/>
<path d="M47 49.8821H37V58.4059H47V49.8821Z" fill="white"/>
<path d="M58 58.4059H47V67.9952H58V58.4059Z" fill="white"/>
<path d="M68 49.8821H58V58.4059H68V49.8821Z" fill="white"/>
</svg>
